HIERARCHY
ROOT Hips
{
	OFFSET 0.000000 0.000000 0.000000
	CHANNELS 6 Xposition Yposition Zposition Zrotation Yrotation Xrotation 
	JOINT LowerBack
	{
		OFFSET 0.000000 0.000000 0.000000
		CHANNELS 3 Zrotation Yrotation Xrotation
		JOINT Spine
		{
			OFFSET 0.028270 2.035590 -0.193380
			CHANNELS 3 Zrotation Yrotation Xrotation
			JOINT Spine1
			{
				OFFSET 0.056720 2.048850 -0.042750
				CHANNELS 3 Zrotation Yrotation Xrotation
				JOINT Neck
				{
					OFFSET 0.000000 0.000000 0.000000
					CHANNELS 3 Zrotation Yrotation Xrotation
					JOINT Neck1
					{
						OFFSET -0.054170 1.746240 0.172020
						CHANNELS 3 Zrotation Yrotation Xrotation
						JOINT Head
						{
							OFFSET 0.104070 1.761360 -0.123970
							CHANNELS 3 Zrotation Yrotation Xrotation
							End Site
							{
								OFFSET 0.000000 0.000000 0.000000
							}
						}
					}
				}
				JOINT LeftShoulder
				{
					OFFSET 0.000000 0.000000 0.000000
					CHANNELS 3 Zrotation Yrotation Xrotation
					JOINT LeftArm
					{
						OFFSET 3.362410 1.200890 -0.311210
						CHANNELS 3 Zrotation Yrotation Xrotation
						JOINT LeftForeArm
						{
							OFFSET 4.983000 -0.000000 -0.000000
							CHANNELS 3 Zrotation Yrotation Xrotation
							JOINT LeftHand
							{
								OFFSET 3.483560 -0.000000 -0.000000
								CHANNELS 3 Zrotation Yrotation Xrotation
								JOINT LeftFingerBase
								{
									OFFSET 0.000000 0.000000 0.000000
									CHANNELS 3 Zrotation Yrotation Xrotation
									JOINT LeftHandIndex1
									{
										OFFSET 0.715260 -0.000000 -0.000000
										CHANNELS 3 Zrotation Yrotation Xrotation
										End Site
										{
											OFFSET 0.000000 0.000000 0.000000
										}
									}
								}
								JOINT LThumb
								{
									OFFSET 0.000000 0.000000 0.000000
									CHANNELS 3 Zrotation Yrotation Xrotation
									End Site
									{
										OFFSET 0.000000 0.000000 0.000000
									}
								}
							}
						}
					}
				}
				JOINT RightShoulder
				{
					OFFSET 0.000000 0.000000 0.000000
					CHANNELS 3 Zrotation Yrotation Xrotation
					JOINT RightArm
					{
						OFFSET -3.136600 1.374050 -0.404650
						CHANNELS 3 Zrotation Yrotation Xrotation
						JOINT RightForeArm
						{
							OFFSET -5.241900 -0.000000 -0.000000
							CHANNELS 3 Zrotation Yrotation Xrotation
							JOINT RightHand
							{
								OFFSET -3.444170 -0.000000 -0.000000
								CHANNELS 3 Zrotation Yrotation Xrotation
								JOINT RightFingerBase
								{
									OFFSET 0.000000 0.000000 0.000000
									CHANNELS 3 Zrotation Yrotation Xrotation
									JOINT RightHandIndex1
									{
										OFFSET -0.622530 -0.000000 -0.000000
										CHANNELS 3 Zrotation Yrotation Xrotation
										End Site
										{
											OFFSET 0.000000 0.000000 0.000000
										}
									}
								}
								JOINT RThumb
								{
									OFFSET 0.000000 0.000000 0.000000
									CHANNELS 3 Zrotation Yrotation Xrotation
									End Site
									{
										OFFSET 0.000000 0.000000 0.000000
									}
								}
							}
						}
					}
				}
			}
		}
	}
}
}
MOTION
Frames: 14
Frame Time: 0.008333
8.804268 15.693906 1.365031 -137.545944 -85.870119 160.618920 0.041105 0.710415 9.084525 -0.701654 0.988022 -1.169287 -5.228666 0.980188 0.242943 8.220600 -9.351581 -9.308158 -1.749120 -0.085264 -0.797154 0.000000 0.000000 0.000000 2.797250 15.822278 3.155363 -75.043890 22.290798 13.830094 -1.713245 -55.106583 -0.002054 -0.766169 3.582650 -0.022177 -0.044933 0.008268 -0.000000 0.000000 0.000000 0.000000 0.000000 0.000000 0.000000 6.249687 -2.746351 0.026984 63.414060 6.215690 12.833618 0.211388 83.498041 -0.013617 -3.160203 3.465230 -0.107001 0.071754 -0.355307 0.000000 0.000000 0.000000 0.000000 0.000000 0.000000 0.000000 
8.660726 15.677586 1.381213 -136.858658 -85.848556 159.801718 -0.184548 0.710360 9.134230 -0.758099 0.993419 -1.164674 -5.280607 0.988345 0.225708 8.282372 -9.367813 -9.266224 -1.762031 -0.086825 -0.784858 0.000000 0.000000 0.000000 2.786858 15.732631 3.134163 -75.063815 21.999195 13.774336 -1.716565 -55.095549 -0.002081 -0.711747 3.609226 -0.020574 -0.045212 0.009144 -0.000000 0.000000 0.000000 0.000000 0.000000 0.000000 0.000000 6.341948 -2.770097 0.016091 63.602522 5.951265 12.868449 0.206748 83.602151 -0.013517 -3.131142 3.465196 -0.106003 0.070517 -0.355337 0.000000 0.000000 0.000000 0.000000 0.000000 0.000000 0.000000 
8.517243 15.664023 1.397650 -135.664849 -85.864179 158.480533 -0.379526 0.700689 9.186916 -0.807698 0.989100 -1.158797 -5.331497 0.986753 0.210027 8.325517 -9.376011 -9.205768 -1.777019 -0.088845 -0.767280 0.000000 0.000000 0.000000 2.763175 15.618248 3.107131 -75.079961 21.680713 13.691805 -1.719454 -55.093967 -0.002117 -0.652357 3.636715 -0.018869 -0.045623 0.010231 -0.000000 0.000000 0.000000 0.000000 0.000000 0.000000 0.000000 6.423319 -2.799446 0.000652 63.818684 5.679654 12.890037 0.204216 83.649884 -0.013442 -3.110143 3.469320 -0.105405 0.069319 -0.355010 0.000000 0.000000 0.000000 0.000000 0.000000 0.000000 0.000000 
8.373931 15.653134 1.414606 -133.905532 -85.906163 156.595815 -0.538303 0.682156 9.240717 -0.849020 0.975757 -1.150412 -5.379872 0.976142 0.202276 8.350189 -9.381534 -9.132085 -1.793252 -0.091170 -0.745919 0.000000 0.000000 0.000000 2.732773 15.507576 3.074074 -75.096002 21.313760 13.597570 -1.722622 -55.089893 -0.002159 -0.588080 3.659069 -0.016962 -0.046248 0.011585 -0.000000 0.000000 0.000000 0.000000 0.000000 0.000000 0.000000 6.493354 -2.839653 -0.021370 64.055870 5.414521 12.907224 0.203956 83.637035 -0.013386 -3.096591 3.474220 -0.105009 0.068173 -0.354208 0.000000 0.000000 0.000000 0.000000 0.000000 0.000000 0.000000 
8.230640 15.644860 1.432166 -131.655625 -85.961254 154.226625 -0.663723 0.656461 9.291782 -0.882716 0.954873 -1.140593 -5.425597 0.957963 0.201377 8.356515 -9.382811 -9.044789 -1.810673 -0.093807 -0.720611 0.000000 0.000000 0.000000 2.687843 15.400300 3.034442 -75.109631 20.915170 13.475581 -1.725353 -55.103024 -0.002205 -0.522362 3.676178 -0.014853 -0.047031 0.013191 -0.000000 0.000000 0.000000 0.000000 0.000000 0.000000 0.000000 6.551707 -2.887872 -0.048957 64.312313 5.158334 12.924490 0.206090 83.561518 -0.013331 -3.087484 3.478622 -0.104814 0.067081 -0.352903 0.000000 0.000000 0.000000 0.000000 0.000000 0.000000 0.000000 
8.087578 15.639108 1.450415 -129.048418 -86.016025 151.506920 -0.761577 0.626242 9.336861 -0.909979 0.928858 -1.129923 -5.468161 0.934615 0.207783 8.346397 -9.380473 -8.946558 -1.828988 -0.096688 -0.692102 0.000000 0.000000 0.000000 2.627137 15.304092 2.988404 -75.121235 20.488209 13.319734 -1.727456 -55.141207 -0.002254 -0.457185 3.685850 -0.012744 -0.047957 0.015062 -0.000000 0.000000 0.000000 0.000000 0.000000 0.000000 0.000000 6.599574 -2.942385 -0.081302 64.583068 4.916096 12.946440 0.210635 83.423634 -0.013265 -3.081008 3.481527 -0.104520 0.066060 -0.351096 0.000000 0.000000 0.000000 0.000000 0.000000 0.000000 0.000000 
7.944851 15.635790 1.469259 -126.286031 -86.057201 148.643738 -0.840739 0.595159 9.372792 -0.932773 0.901151 -1.119079 -5.507475 0.909515 0.221427 8.322903 -9.374836 -8.840259 -1.848125 -0.099757 -0.661271 0.000000 0.000000 0.000000 2.551221 15.224512 2.936510 -75.131568 20.035507 13.124153 -1.728710 -55.209654 -0.002301 -0.393632 3.686692 -0.010631 -0.049004 0.017202 -0.000000 0.000000 0.000000 0.000000 0.000000 0.000000 0.000000 6.640389 -3.000584 -0.117034 64.863411 4.691296 12.975893 0.217554 83.225441 -0.013180 -3.076032 3.482884 -0.104326 0.065138 -0.348837 0.000000 0.000000 0.000000 0.000000 0.000000 0.000000 0.000000 
7.802739 15.634784 1.488618 -123.630959 -86.073177 145.902262 -0.910829 0.567582 9.397041 -0.953237 0.875996 -1.108857 -5.543675 0.886879 0.241431 8.290016 -9.365519 -8.729032 -1.868077 -0.102956 -0.629079 0.000000 0.000000 0.000000 2.462310 15.165037 2.879679 -75.142046 19.558498 12.883506 -1.728934 -55.311299 -0.002345 -0.331879 3.677215 -0.008619 -0.050152 0.019624 -0.000000 0.000000 0.000000 0.000000 0.000000 0.000000 0.000000 6.678325 -3.058246 -0.154375 65.148144 4.486381 13.014311 0.226739 82.971162 -0.013074 -3.071826 3.483208 -0.104132 0.064348 -0.346212 0.000000 0.000000 0.000000 0.000000 0.000000 0.000000 0.000000 
7.661555 15.636004 1.508212 -121.326358 -86.056596 143.529226 -0.980033 0.547335 9.408176 -0.973254 0.857242 -1.099968 -5.577249 0.870524 0.266276 8.251937 -9.351737 -8.615825 -1.889006 -0.106243 -0.596462 0.000000 0.000000 0.000000 2.364033 15.125507 2.819125 -75.154176 19.059017 12.593300 -1.727914 -55.446649 -0.002384 -0.270506 3.656925 -0.006605 -0.051379 0.022332 -0.000000 0.000000 0.000000 0.000000 0.000000 0.000000 0.000000 6.718340 -3.110927 -0.191268 65.433017 4.301674 13.061881 0.238069 82.665684 -0.012948 -3.068356 3.483888 -0.103937 0.063723 -0.343330 0.000000 0.000000 0.000000 0.000000 0.000000 0.000000 0.000000 
7.521723 15.639366 1.527832 -119.548664 -86.004350 141.703974 -1.054716 0.537393 9.405963 -0.994245 0.848029 -1.092441 -5.608476 0.863583 0.296094 8.213233 -9.333461 -8.504987 -1.910955 -0.109544 -0.564793 0.000000 0.000000 0.000000 2.265176 15.112336 2.756428 -75.170730 18.525638 12.261206 -1.725937 -55.603872 -0.002422 -0.204462 3.622963 -0.004390 -0.052735 0.025368 -0.000000 0.000000 0.000000 0.000000 0.000000 0.000000 0.000000 6.765788 -3.155412 -0.226482 65.712752 4.138812 13.117238 0.251345 82.315322 -0.012804 -3.065714 3.486117 -0.103842 0.063270 -0.340300 0.000000 0.000000 0.000000 0.000000 0.000000 0.000000 0.000000 
7.383564 15.644815 1.547095 -118.401183 -85.920505 140.531725 -1.141029 0.538543 9.389963 -1.017751 0.849332 -1.088354 -5.638544 0.866920 0.323038 8.175765 -9.306777 -8.393450 -1.934460 -0.112953 -0.533169 0.000000 0.000000 0.000000 2.158962 15.092145 2.692354 -75.190728 17.993841 11.854560 -1.721428 -55.807730 -0.002459 -0.135195 3.582967 -0.002073 -0.054068 0.028670 -0.000000 0.000000 0.000000 0.000000 0.000000 0.000000 0.000000 6.822344 -3.185783 -0.255657 65.987736 3.990206 13.179357 0.266611 81.922527 -0.012651 -3.065436 3.494931 -0.103945 0.063052 -0.337285 0.000000 0.000000 0.000000 0.000000 0.000000 0.000000 0.000000 
7.247577 15.652215 1.565784 -117.884910 -85.809193 140.013748 -1.243211 0.550965 9.363233 -1.044500 0.861602 -1.085968 -5.666829 0.881056 0.351337 8.143544 -9.273131 -8.288225 -1.959240 -0.116320 -0.503794 0.000000 0.000000 0.000000 2.063726 15.087692 2.629082 -75.218870 17.426408 11.407806 -1.715734 -56.021724 -0.002506 -0.050001 3.530230 0.000645 -0.055574 0.032331 -0.000000 0.000000 0.000000 0.000000 0.000000 0.000000 0.000000 6.892838 -3.202343 -0.279942 66.252957 3.860651 13.246191 0.283569 81.493664 -0.012489 -3.067283 3.509490 -0.104347 0.063009 -0.334327 0.000000 0.000000 0.000000 0.000000 0.000000 0.000000 0.000000 
7.113948 15.661527 1.583635 -117.939047 -85.678931 140.090401 -1.364878 0.573104 9.327712 -1.075324 0.883444 -1.086158 -5.693691 0.904522 0.375732 8.116864 -9.229406 -8.186844 -1.985593 -0.119710 -0.475980 0.000000 0.000000 0.000000 1.977783 15.073844 2.567520 -75.255143 16.844291 10.905145 -1.707865 -56.255230 -0.002570 0.054974 3.469327 0.003863 -0.057200 0.036324 -0.000000 0.000000 0.000000 0.000000 0.000000 0.000000 0.000000 6.977172 -3.202155 -0.296655 66.509265 3.743861 13.315954 0.302175 81.030744 -0.012336 -3.071751 3.532505 -0.105047 0.063144 -0.331513 0.000000 0.000000 0.000000 0.000000 0.000000 0.000000 0.000000 
6.983103 15.672622 1.600483 -118.473686 -85.538035 140.668405 -1.508564 0.602546 9.287051 -1.110546 0.912614 -1.088189 -5.718511 0.935095 0.395987 8.095790 -9.175109 -8.090605 -2.013242 -0.123073 -0.450148 0.000000 0.000000 0.000000 1.907235 15.049154 2.508785 -75.300480 16.240857 10.358064 -1.697961 -56.496531 -0.002669 0.188745 3.400677 0.007785 -0.059029 0.040670 -0.000000 0.000000 0.000000 0.000000 0.000000 0.000000 0.000000 7.074265 -3.185705 -0.305747 66.756646 3.640378 13.388397 0.322336 80.534829 -0.012181 -3.078786 3.564856 -0.106047 0.063412 -0.328865 0.000000 0.000000 0.000000 0.000000 0.000000 0.000000 0.000000 
